<svg xmlns="http://www.w3.org/2000/svg" width="1521" height="546"><path fill="#fff" d="M169.31 542.8c-45.24-1.8-82.26-14.19-111.21-37.21-5.52-4.39-18.68-17.58-23.1-23.14-11.74-14.77-19.72-29.15-25.04-45.1-16.38-49.1-7.95-113.53 24.11-184.24 27.45-60.53 69.81-120.58 143.7-203.73 10.89-12.24 43.31-48.02 43.51-48.02.08 0-1.68 3.06-3.91 6.79-19.21 32.21-35.65 70.15-44.61 103-14.39 52.7-12.65 97.93 5.08 133.01 12.24 24.16 33.21 45.09 56.79 56.66 41.29 20.24 101.74 21.92 175.56 4.9 5.08-1.18 256.93-68.09 559.66-148.7s550.46-146.51 550.5-146.46c.09.07-703.33 301.32-1068.49 457.61-57.83 24.74-73.29 30.99-100.48 40.55-69.49 24.42-131.75 36.08-182.07 34.08"/></svg>