<?xml version="1.0" encoding="utf-8"?>
<!-- Generator: Adobe Illustrator 24.1.2, SVG Export Plug-In . SVG Version: 6.00 Build 0)  -->
<svg version="1.1" id="Layer_2" xmlns="http://www.w3.org/2000/svg" xmlns:xlink="http://www.w3.org/1999/xlink" x="0px" y="0px"
	 width="608px" height="1368px" viewBox="0 0 608 1368" style="enable-background:new 0 0 608 1368;" xml:space="preserve">
<style type="text/css">
	.st0{fill:#1063FF;}
	.st1{fill:#FF7EB6;}
	.st2{fill:#BE95FF;}
	.st3{fill:#C1C7CD;}
	.st4{fill:#FFFFFF;}
</style>
<rect y="684" class="st1" width="608" height="342"/>
<rect y="1026" class="st3" width="608" height="342"/>
<path id="IBM_Mixed_2_" d="M206.2,852.2h18.3v-6.1h-18.3V852.2z M224.6,834.4h-18.3v6.1h18.3V834.4z M194,828.9h42.8v-6.1H194V828.9
	z M194,817.2h42.8v-6.1H194V817.2z M224.6,857.8v23.3h12.2v17.8H194v-17.8h12.2v-23.3H224.6z M282.3,817.2h21.3
	c-4.1-3.8-9.7-6.1-15.7-6.1h-45v17.8h12.2v23.3H303c2-1.7,3.8-3.8,5.1-6.1h-34.6l0-17.2h37.1c-0.5-2.2-1.4-4.2-2.5-6.1h-25.8V817.2z
	 M290.7,840.6h19.7c0.5-1.9,0.8-4,0.8-6.1h-20.6V840.6z M255.1,875.6h18.3v-6.1h-18.3V875.6z M287.9,898.9
	c12.9,0,23.3-10.5,23.3-23.4c0-7.1-3.1-13.4-8.1-17.7h-48v6.1h35.6v17.2h-47.8v6.1h39.4v5.6h-39.4v6.1H287.9z M365.1,851.1
	l-13.9-39.9l-35,0v17.8h12.2v23.3h18.3v-5.6l2,5.6l21.8,0h10.9l2-5.6v5.6h18.3v-6.1h-34.9L365.1,851.1z M383.4,857.8v41.1l30.6,0
	v-17.8h-12.2v-23.3H383.4z M316.2,898.9h30.6v-6.1h-30.6V898.9z M316.2,887.2h30.6v-6.1h-30.6V887.2z M328.4,875.6h18.3v-6.1h-18.3
	V875.6z M328.4,863.9h18.3v-6.1h-18.3V863.9z M361,887.2l-2.1-6.1h6.2v-5.6h-8.2l-2.1-6.1l10.3,0v-5.6l-12.3,0l-2.1-6.1h28.8
	l-14.4,41.1l-2.1-6.1l2.1,0v-5.6L361,887.2z M372.8,828.9H414v-6.1h-39.1L372.8,828.9z M379,811.1l-2.1,6.1H414v-6.1H379z
	 M401.8,834.4h-30.9l-2.1,6.1h33V834.4z"/>
<g id="IBM_Outlined_2_">
	<path d="M236.8,1170.9v-17.8H194v17.8h12.2v52.2H194v17.8h42.8v-17.8h-12.2v-52.2H236.8z M231.2,1228.7v6.7h-31.7v-6.7h12.2v-63.3
		h-12.2v-6.7h31.7v6.7H219v63.3H231.2z"/>
	<path d="M414,1170.9v-17.8h-35l-13.9,37l-13.9-37h-35v17.8h12.2v52.2h-12.2v17.8h30.6v-47.5l18.3,47.5l18.3-47.5v47.5H414v-17.8
		h-12.2v-52.2H414z M408.4,1228.7v6.7H389v-57.5h-5.4l-18.5,47.7l-18.4-47.7h-5.5v57.5h-19.4v-6.7H334v-63.3h-12.2v-6.7h25.5
		l17.8,46.8l17.8-46.8h25.5v6.7h-12.2v63.3H408.4z"/>
	<path d="M299.1,1197c7.3-4,12.2-11.7,12.2-20.5c0-12.9-10.4-23.4-23.3-23.4h-45v17.8h12.2v52.2h-12.2v17.8h45
		c12.9,0,23.3-10.5,23.3-23.4C311.2,1208.7,306.3,1201,299.1,1197z M287.9,1235.3h-39.4v-6.7h12.2v-63.3h-12.2v-6.7h39.4
		c9.8,0,17.8,8,17.8,17.8c0,6.5-3.6,12.5-9.3,15.6l-0.2,0.1v-26.9h-28.3v28.3h22.8v6.7h-22.8v28.3h28.3v-26.9l0.2,0.1
		c5.7,3.1,9.3,9.1,9.3,15.6C305.7,1227.3,297.7,1235.3,287.9,1235.3z M290.7,1170.9v17.2h-17.2v-17.2H290.7z M290.7,1205.9v17.2
		h-17.2v-17.2H290.7z"/>
</g>
<rect y="0.1" class="st0" width="608" height="342"/>
<rect y="342.1" class="st2" width="608" height="342"/>
<path id="IBM_alternating_2_" class="st4" d="M194,127.2h42.8V145h-12.2v52.2h12.2V215H194v-17.8h12.2V145H194V127.2z M311.2,191.6
	c0,12.9-10.4,23.4-23.3,23.4h-45v-17.8h12.2V145h-12.2v-17.8h45c12.9,0,23.3,10.5,23.3,23.4c0,8.9-5,16.6-12.2,20.5
	C306.3,175.1,311.2,182.7,311.2,191.6z M308.2,191.6c0-8.3-4.5-15.6-15.2-20.5c9.2-4.2,15.2-10.3,15.2-20.5
	c0-11.2-9.1-20.3-20.3-20.3l-41.9,0v11.7h12.2v58.3h-12.2v11.7l41.9,0C299.1,211.9,308.2,202.8,308.2,191.6z M293.7,141.9v23.3
	h-23.3v-23.3H293.7z M290.7,145h-17.2v17.2h17.2V145z M293.7,176.9v23.3h-23.3v-23.3H293.7z M290.7,180h-17.2v17.2h17.2V180z
	 M365.1,215l2.1-6.1H363L365.1,215z M361,203.3h8.1l2.1-6.1h-12.4L361,203.3z M356.9,191.6h16.3l2.1-6.1h-20.6L356.9,191.6z
	 M352.8,180h24.5l2.1-6.1h-28.8L352.8,180z M328.4,156.6h33l-2.1-6.1h-30.9V156.6z M372.8,145H414v-6.1h-39.1L372.8,145z M379,127.2
	l-2.1,6.1H414v-6.1H379z M316.2,215h30.6v-6.1h-30.6V215z M316.2,203.3h30.6v-6.1h-30.6V203.3z M328.4,191.6h18.3v-6.1h-18.3V191.6z
	 M328.4,180h18.3v-6.1h-18.3V180z M401.8,150.5h-30.9l-2.1,6.1h33V150.5z M383.4,168.3h18.3v-6.1h-34.9l-1.7,4.9l-1.7-4.9h-34.9v6.1
	h18.3v-5.6l2,5.6h32.7l2-5.6V168.3z M401.8,173.9h-18.3v6.1h18.3V173.9z M383.4,191.6h18.3v-6.1h-18.3V191.6z M383.4,203.3H414v-6.1
	h-30.6V203.3z M383.4,215H414v-6.1h-30.6V215z M357.4,145l-2.1-6.1h-39.1l0,6.1H357.4z M353.3,133.3l-2.1-6.1h-35l0,6.1H353.3z"/>
<path id="IBM_blend_2_" d="M401.8,487v52.2H414V557l-30.6,0v-52.3L365.1,557l-18.3-52.3V557l-30.6,0v-17.8h12.2V487h-12.2v-17.8
	l35,0l13.9,39.9l13.9-39.9l35,0V487H401.8z M310.6,487c-2.5-10.2-11.7-17.8-22.7-17.8h-45V487L310.6,487z M242.9,539.2V557h45
	c11,0,20.2-7.6,22.7-17.8L242.9,539.2z M311.2,533.6C311.2,533.6,311.2,533.6,311.2,533.6c0-7.1-3.2-13.5-8.2-17.8h-47.9v17.8h18.3
	V522h17.2v11.7H311.2z M303,510.3c5-4.3,8.2-10.6,8.2-17.7c0,0,0,0,0,0h-20.6l0,11.7h-17.2v-11.7h-18.3v17.8H303z M194,557h42.8
	v-6.1H194V557z M194,545.3h42.8v-6.1H194V545.3z M206.2,533.6h18.3v-6.1h-18.3V533.6z M206.2,522h18.3v-6.1h-18.3V522z M206.2,510.3
	h18.3v-6.1h-18.3V510.3z M224.6,492.5h-18.3v6.1h18.3V492.5z M194,487h42.8v-6.1H194V487z M194,475.3h42.8v-6.1H194V475.3z"/>
</svg>
